<?xml version="1.0" encoding="UTF-8"?>
<svg id="uuid-903fab72-cf89-4b85-ba22-f0966f6a8a44" data-name="Capa 1" xmlns="http://www.w3.org/2000/svg" viewBox="0 0 190 190">
  <defs>
    <style>
      .uuid-721e5c95-ba7d-406d-ab3a-c5e5a1d2c16b {
        fill: #067db9;
      }
    </style>
  </defs>
  <path class="uuid-721e5c95-ba7d-406d-ab3a-c5e5a1d2c16b" d="M104.44,128.45v.04c-1.62.04-7.16.5-10.45,4.91-.32.37-.65.78-.93,1.21-.24.35-.74,1.04-.84,1.04-.69,0-2.21-1.3-3.07-3.07-.06-.15-.17-.3-.28-.43-2.03-2.51-4.59-.84-5.54-.22-.41.26-.78.52-1.34.76-1.06.54-1.62.69-1.88.71-.17-.43-.32-1.38-.43-2.05-.26-1.69-.61-3.79-1.97-5.32-.06-.06-.13-.15-.22-.22-1.56-1.32-3.91-1.28-6.23.15-1.54,1.04-2.85,2.49-4.24,4.02-2.18,2.4-4.43,4.91-7.59,5.97-2.29.63-3.96.41-5.15-.78,7.55-6.49,11.85-13.8,11.85-20.55.22-3.14-1.54-6.34-4.26-7.81-2.29-1.23-4.8-.99-6.75.5-6.06,3.94-9.43,18.45-6.42,26.78-1.69,1.25-3.55,2.51-5.62,3.72-1.04.61-1.36,1.92-.76,2.96.41.69,1.12,1.06,1.86,1.06.37,0,.76-.09,1.1-.3,1.99-1.19,3.87-2.42,5.6-3.7,2.31,2.55,5.73,3.37,9.82,2.23,4.33-1.45,7.22-4.63,9.52-7.2,1.21-1.34,2.36-2.6,3.37-3.31.48-.3.91-.41,1.04-.48.39.67.58,1.84.76,2.9.32,1.99.67,4.26,2.7,5.28,1.99,1.02,4.3.04,5.69-.69.76-.3,1.41-.71,1.9-1.06.02,0,.06-.04.11-.06,1.28,2.08,3.63,4.61,6.68,4.5,2.18-.17,3.33-1.77,4.09-2.86.19-.28.41-.56.76-.97,1.77-2.38,4.89-3.27,7.2-3.33,1.19-.02,2.14-1.02,2.12-2.21s-.95-2.12-2.21-2.12ZM52.36,131.14c-1.56-6.9,1.43-17.76,5.3-20.27h-.02c.41-.32.82-.47,1.25-.47.3,0,.63.09.95.26,1.21.65,2.08,2.27,1.99,3.83,0,4.35-2.66,10.49-9.47,16.65Z"/>
  <path class="uuid-721e5c95-ba7d-406d-ab3a-c5e5a1d2c16b" d="M156.45,52.79h.02s-.41-.28-.41-.28l1.77-2.64c.32-.48.43-1.06.32-1.62-.11-.56-.43-1.06-.91-1.38l-.41-.28,1.77-2.64c2.31-3.44,1.38-8.09-2.03-10.4-1.67-1.12-3.66-1.51-5.62-1.12-1.97.39-3.66,1.51-4.78,3.18l-1.77,2.64-.41-.28c-.99-.67-2.34-.41-3.01.58l-17.84,26.56-12.83,19.1H36.6c-3.57,0-6.49,2.92-6.49,6.49v60.56c0,3.57,2.92,6.49,6.49,6.49h82.19c3.57,0,6.49-2.92,6.49-6.49v-52.93l14.71-21.89,13.65-20.33.41.28c.71.48,1.19,1.19,1.34,2.01.17.82,0,1.67-.48,2.38l-13.37,19.92c-.67.99-.41,2.34.58,3.01.37.26.8.37,1.21.37.69,0,1.38-.35,1.8-.95l13.37-19.92c1.12-1.67,1.51-3.66,1.12-5.62-.39-1.97-1.51-3.66-3.18-4.78ZM120.98,151.27l-.02-.02c0,1.19-.97,2.16-2.16,2.16H36.6c-1.19,0-2.16-.97-2.16-2.16v-60.56c0-1.19.97-2.16,2.16-2.16h70.79l-9.54,14.21c-.17.28-.28.56-.32.87,0,0,0,.04-.02.06l-2.21,17.24-1.21,1.8c-.67.99-.41,2.34.58,3.01.37.26.78.37,1.21.37.69,0,1.38-.35,1.8-.95l1.19-1.8,15.12-8.57.04-.04c.26-.15.5-.37.69-.63l6.25-9.3v46.48ZM101.34,107.68l7.46,5.02-8.76,4.95,1.28-9.97h.02ZM112.33,109.85l-9.69-6.51,22.86-34.04,9.69,6.51-22.86,34.04ZM151.24,51.9l-13.65,20.33-9.69-6.51,15.42-22.97,9.69,6.51-1.77,2.64ZM154.98,41.54l-1.77,2.64-5.28-3.55,1.77-2.64.02.02c.48-.69,1.19-1.19,2.01-1.34.82-.17,1.67,0,2.38.48,1.45.97,1.84,2.94.87,4.39Z"/>
</svg>