<?xml version="1.0" encoding="UTF-8"?>
<svg id="uuid-af0ba3db-2754-484b-b3e5-f5e7c812821e" data-name="Capa 1" xmlns="http://www.w3.org/2000/svg" viewBox="0 0 190 190">
  <defs>
    <style>
      .uuid-2c61baa2-94d1-41b0-86d4-956a3fbef0c0 {
        fill: #067db9;
      }
    </style>
  </defs>
  <g>
    <g>
      <path class="uuid-2c61baa2-94d1-41b0-86d4-956a3fbef0c0" d="M86.54,86.13s-.01-.03-.02-.05c-.41-.99-1.36-1.63-2.43-1.63h0c-1.07,0-2.02.64-2.43,1.63,0,.01-.01.03-.02.04l-12.45,32.68c-.37.97.12,2.05,1.08,2.42.97.37,2.05-.12,2.42-1.08l2.64-6.93h17.41l2.61,6.93c.28.75,1,1.21,1.75,1.21.22,0,.44-.04.66-.12.97-.37,1.46-1.45,1.09-2.42l-12.33-32.68ZM76.77,109.46l7.32-19.21,7.25,19.21h-14.57Z"/>
      <path class="uuid-2c61baa2-94d1-41b0-86d4-956a3fbef0c0" d="M119.05,98.85c-1.04,0-1.87.84-1.87,1.87v1.51c-1.75-1.42-3.98-2.28-6.4-2.28-5.6,0-10.15,4.55-10.15,10.15s4.55,10.15,10.15,10.15c2.42,0,4.65-.86,6.4-2.28v1.51c0,1.04.84,1.87,1.87,1.87s1.87-.84,1.87-1.87v-18.75c0-1.04-.84-1.87-1.87-1.87ZM110.77,116.5c-3.53,0-6.4-2.87-6.4-6.4s2.87-6.4,6.4-6.4,6.4,2.87,6.4,6.4-2.87,6.4-6.4,6.4Z"/>
    </g>
    <g>
      <path class="uuid-2c61baa2-94d1-41b0-86d4-956a3fbef0c0" d="M109.05,130.26h-46.45c-2.72,0-4.94-2.22-4.94-4.94v-47.14c0-2.72,2.22-4.94,4.94-4.94h9.58c1.04,0,1.87.84,1.87,1.87s-.84,1.87-1.87,1.87h-9.58c-.66,0-1.19.53-1.19,1.19v47.14c0,.66.53,1.19,1.19,1.19h46.45c1.04,0,1.87.84,1.87,1.87s-.84,1.87-1.87,1.87Z"/>
      <path class="uuid-2c61baa2-94d1-41b0-86d4-956a3fbef0c0" d="M127.4,130.26h-9.58c-1.04,0-1.87-.84-1.87-1.87s.84-1.87,1.87-1.87h9.58c.66,0,1.19-.53,1.19-1.19v-47.14c0-.66-.53-1.19-1.19-1.19h-46.45c-1.04,0-1.87-.84-1.87-1.87s.84-1.87,1.87-1.87h46.45c2.72,0,4.94,2.22,4.94,4.94v47.14c0,2.72-2.22,4.94-4.94,4.94h0Z"/>
    </g>
  </g>
  <path class="uuid-2c61baa2-94d1-41b0-86d4-956a3fbef0c0" d="M139.8,52.84l-19.41-19.41c-1.55-1.55-3.61-2.4-5.8-2.4h-56.57c-5.64,0-10.22,4.58-10.22,10.22v107.5c0,5.64,4.58,10.22,10.22,10.22h73.96c5.64,0,10.22-4.58,10.22-10.22V58.64c0-2.19-.85-4.25-2.4-5.8h0ZM135.8,54.15h-10.24c-3.57,0-6.47-2.9-6.47-6.47v-10.24l16.71,16.71ZM138.45,148.75c0,3.57-2.9,6.47-6.47,6.47H58.02c-3.57,0-6.47-2.9-6.47-6.47V41.25c0-3.57,2.9-6.47,6.47-6.47h56.57c.25,0,.5.03.74.07v12.83c0,5.64,4.58,10.22,10.22,10.22h12.83c.04.24.07.49.07.74v90.11Z"/>
</svg>