<?xml version="1.0" encoding="UTF-8"?>
<svg id="uuid-eb3d4040-fa2b-4f54-9e5d-57e244f55d63" data-name="Capa 1" xmlns="http://www.w3.org/2000/svg" viewBox="0 0 190 190">
  <defs>
    <style>
      .uuid-84d44bae-b296-46aa-be3e-9d1a28a49682 {
        fill: #067db9;
      }
    </style>
  </defs>
  <path class="uuid-84d44bae-b296-46aa-be3e-9d1a28a49682" d="M38.31,35.41c-7.47,0-13.56,6.07-13.56,13.55v92.08c0,7.48,6.09,13.55,13.56,13.55h113.38c7.47,0,13.56-6.07,13.56-13.55V48.96c0-7.48-6.09-13.55-13.56-13.55H38.31ZM38.31,39.8h113.38c5.11,0,9.17,4.04,9.17,9.16v42.82l-20.08-19.9c-2.24-2.22-5.18-3.34-8.12-3.34s-5.9,1.12-8.14,3.34l-40.17,39.82-13.98-13.81c-2.21-2.19-5.12-3.29-8.02-3.29h0c-2.9,0-5.81,1.1-8.02,3.29l-25.19,24.9V48.96c0-5.12,4.05-9.16,9.17-9.16h0ZM76.62,50.82c-9.1,0-16.53,7.42-16.53,16.53s7.43,16.53,16.53,16.53,16.53-7.42,16.53-16.53-7.42-16.53-16.53-16.53ZM76.62,55.22c6.73,0,12.14,5.41,12.14,12.14s-5.41,12.15-12.14,12.15-12.14-5.42-12.14-12.15,5.41-12.14,12.14-12.14ZM132.66,72.9c1.81,0,3.63.69,5.03,2.08l23.17,22.97v43.09c0,5.12-4.06,9.16-9.17,9.16h-28.37s-35.84-35.42-35.84-35.42l40.14-39.8c1.41-1.39,3.21-2.08,5.03-2.08h0ZM62.37,98.96c1.77,0,3.55.68,4.92,2.04l15.5,15.31s0,.01,0,.02c0,0,.01,0,.01,0l34.27,33.86H38.31c-5.11,0-9.17-4.03-9.17-9.15v-12.09l28.3-27.96c1.38-1.36,3.15-2.04,4.93-2.04h0Z"/>
</svg>