<?xml version="1.0" encoding="UTF-8"?>
<svg id="uuid-63ab9c91-a797-4e14-b846-4b2851f39374" data-name="Capa 1" xmlns="http://www.w3.org/2000/svg" viewBox="0 0 190 190">
  <defs>
    <style>
      .uuid-27522637-6844-4c87-b43d-37ae5ca57ba7 {
        fill: #067db9;
      }
    </style>
  </defs>
  <path class="uuid-27522637-6844-4c87-b43d-37ae5ca57ba7" d="M26.99,74.9l10.02,26.88,9.89-26.56c1.38-3.76,3.49-4.08,4.81-4.08,2.7,0,5.07,2.11,5.07,4.75,0,.86-.13,1.58-.46,2.37l-14.23,36.24c-1.45,3.76-2.96,4.35-5.07,4.35-1.71,0-3.49-.26-5.14-4.48l-13.77-34.99c-.53-1.32-.86-2.11-.86-3.49,0-2.64,2.37-4.75,5.07-4.75,2.31,0,3.89,1.65,4.68,3.76Z"/>
  <path class="uuid-27522637-6844-4c87-b43d-37ae5ca57ba7" d="M55.13,114.24c0-.59.07-1.05.53-2.37l13.05-35.32c1.32-3.56,4.02-5.8,7.18-5.8s5.8,1.98,6.98,5.34l12.98,36.05c.33.92.53,1.78.53,2.37,0,2.5-2.11,4.35-4.55,4.35-2.83,0-4.22-1.58-4.88-3.62l-1.91-6h-18.32l-1.98,6.13c-.66,1.98-1.98,3.49-4.81,3.49-2.57,0-4.81-1.98-4.81-4.61h0ZM69.56,100.14h12.52l-6.13-19.11h-.13l-6.26,19.11h0Z"/>
  <path class="uuid-27522637-6844-4c87-b43d-37ae5ca57ba7" d="M130.59,77.34c0,2.7-1.84,4.88-4.42,4.88-2.37,0-5.27-1.98-8.7-1.98s-5.47,1.84-5.47,4.28c0,2.17,2.5,3.49,7.05,4.68,12.45,3.16,14.96,8.43,14.96,14.76,0,8.96-7.31,15.29-16.87,15.29-8.57,0-16.01-2.44-16.01-7.38,0-2.7,1.84-4.68,4.42-4.68,2.83,0,6.98,2.57,11.07,2.57s6.72-2.24,6.72-5.67c0-2.7-2.64-4.15-7.97-5.47-10.87-2.7-14.04-6.72-14.04-12.92,0-9.1,7.45-14.96,16.34-14.96,5.54,0,12.92,2.11,12.92,6.59h0Z"/>
  <path class="uuid-27522637-6844-4c87-b43d-37ae5ca57ba7" d="M169.33,77.34c0,2.7-1.84,4.88-4.42,4.88-2.37,0-5.27-1.98-8.7-1.98s-5.47,1.84-5.47,4.28c0,2.17,2.5,3.49,7.05,4.68,12.45,3.16,14.96,8.43,14.96,14.76,0,8.96-7.31,15.29-16.87,15.29-8.57,0-16.01-2.44-16.01-7.38,0-2.7,1.84-4.68,4.42-4.68,2.83,0,6.98,2.57,11.07,2.57s6.72-2.24,6.72-5.67c0-2.7-2.64-4.15-7.97-5.47-10.87-2.7-14.04-6.72-14.04-12.92,0-9.1,7.45-14.96,16.34-14.96,5.54,0,12.92,2.11,12.92,6.59h0Z"/>
</svg>