<?xml version="1.0" encoding="UTF-8"?>
<svg id="uuid-2efbbb72-795a-4bc2-bfa6-8e943aad0c26" data-name="Capa 1" xmlns="http://www.w3.org/2000/svg" viewBox="0 0 190 190">
  <defs>
    <style>
      .uuid-e72593b8-b8d1-45a2-8de3-37d58c692a25 {
        fill: #067db9;
      }
    </style>
  </defs>
  <path class="uuid-e72593b8-b8d1-45a2-8de3-37d58c692a25" d="M148.53,37.78h-47v-7.95c0-1.25-1.01-2.27-2.27-2.27s-2.27,1.02-2.27,2.27v7.95h-46.99c-5.38,0-9.76,4.38-9.76,9.76v56.08c0,5.38,4.38,9.76,9.76,9.76h98.53c5.38,0,9.76-4.38,9.76-9.76v-56.08c0-5.38-4.38-9.76-9.76-9.76ZM153.75,103.62c0,2.83-2.39,5.22-5.22,5.22H50c-2.83,0-5.22-2.39-5.22-5.22v-56.08c0-2.83,2.39-5.22,5.22-5.22h98.53c2.83,0,5.22,2.39,5.22,5.22v56.08Z"/>
  <path class="uuid-e72593b8-b8d1-45a2-8de3-37d58c692a25" d="M156.02,117.47H42.51c-1.26,0-2.27,1.02-2.27,2.27s1.01,2.27,2.27,2.27h29.31l-18.59,33.87c-.6,1.1-.2,2.48.9,3.08.35.19.72.28,1.09.28.8,0,1.58-.43,1.99-1.18l19.78-36.05h44.53l19.79,36.05c.42.75,1.19,1.18,1.99,1.18.37,0,.74-.09,1.09-.28,1.1-.6,1.5-1.98.9-3.08l-18.59-33.87h29.31c1.26,0,2.27-1.02,2.27-2.27s-1.01-2.27-2.27-2.27Z"/>
  <path class="uuid-e72593b8-b8d1-45a2-8de3-37d58c692a25" d="M121.82,87.36h-14.76c-1.26,0-2.27,1.02-2.27,2.27s1.01,2.27,2.27,2.27h14.76c1.26,0,2.27-1.02,2.27-2.27s-1.01-2.27-2.27-2.27Z"/>
  <path class="uuid-e72593b8-b8d1-45a2-8de3-37d58c692a25" d="M136.58,73.39h-29.51c-1.26,0-2.27,1.02-2.27,2.27s1.01,2.27,2.27,2.27h29.51c1.26,0,2.27-1.02,2.27-2.27s-1.01-2.27-2.27-2.27Z"/>
  <path class="uuid-e72593b8-b8d1-45a2-8de3-37d58c692a25" d="M72,57.56c-10,0-18.14,8.14-18.14,18.14s8.14,18.14,18.14,18.14,18.14-8.14,18.14-18.14c0-10-8.14-18.14-18.14-18.14ZM72,90.5c-8.17,0-14.81-6.64-14.81-14.81,0-7.6,5.76-13.88,13.15-14.71v14.71c0,.92.74,1.66,1.66,1.66h14.71c-.83,7.38-7.11,13.15-14.71,13.15ZM73.66,74.03v-13.05c6.84.77,12.28,6.21,13.05,13.05h-13.05Z"/>
  <path class="uuid-e72593b8-b8d1-45a2-8de3-37d58c692a25" d="M128.82,80.35h-21.76c-1.26,0-2.27,1.02-2.27,2.27s1.01,2.27,2.27,2.27h21.76c1.26,0,2.27-1.02,2.27-2.27s-1.01-2.27-2.27-2.27Z"/>
  <path class="uuid-e72593b8-b8d1-45a2-8de3-37d58c692a25" d="M108.86,63.22c.61,0,1.05-.17,1.47-1.26l4.13-10.52c.1-.23.13-.44.13-.69,0-.77-.69-1.38-1.47-1.38-.38,0-.99.1-1.4,1.19l-2.87,7.71-2.91-7.81c-.23-.61-.69-1.09-1.36-1.09-.78,0-1.47.61-1.47,1.38,0,.4.1.63.25,1.01l4,10.16c.48,1.22.99,1.3,1.49,1.3Z"/>
  <path class="uuid-e72593b8-b8d1-45a2-8de3-37d58c692a25" d="M114.12,61.88h0c0,.77.65,1.34,1.4,1.34.82,0,1.2-.44,1.4-1.01l.57-1.78h5.32l.55,1.74c.19.59.59,1.05,1.42,1.05.71,0,1.32-.54,1.32-1.26,0-.17-.06-.42-.15-.69l-3.77-10.47c-.34-.98-1.11-1.55-2.03-1.55s-1.7.65-2.09,1.68l-3.79,10.25c-.13.38-.15.52-.15.69ZM120.13,52.24h.04l1.78,5.55h-3.63l1.82-5.55Z"/>
  <path class="uuid-e72593b8-b8d1-45a2-8de3-37d58c692a25" d="M131.97,60.58c-1.19,0-2.39-.75-3.21-.75-.75,0-1.28.57-1.28,1.36,0,1.43,2.16,2.14,4.65,2.14,2.77,0,4.9-1.84,4.9-4.44,0-1.84-.73-3.37-4.34-4.29-1.32-.35-2.05-.73-2.05-1.36,0-.71.59-1.24,1.59-1.24s1.84.57,2.53.57c.75,0,1.28-.63,1.28-1.42h0c0-1.3-2.14-1.91-3.75-1.91-2.58,0-4.75,1.7-4.75,4.34,0,1.8.92,2.97,4.07,3.75,1.55.38,2.31.8,2.31,1.59,0,.99-.76,1.65-1.95,1.65Z"/>
  <path class="uuid-e72593b8-b8d1-45a2-8de3-37d58c692a25" d="M143.93,54.61c-1.32-.35-2.05-.73-2.05-1.36,0-.71.59-1.24,1.59-1.24s1.84.57,2.53.57c.75,0,1.28-.63,1.28-1.42h0c0-1.3-2.14-1.91-3.75-1.91-2.58,0-4.75,1.7-4.75,4.34,0,1.8.92,2.97,4.07,3.75,1.55.38,2.31.8,2.31,1.59,0,.99-.76,1.65-1.95,1.65s-2.39-.75-3.21-.75c-.75,0-1.28.57-1.28,1.36,0,1.43,2.16,2.14,4.65,2.14,2.77,0,4.9-1.84,4.9-4.44,0-1.84-.73-3.37-4.34-4.29Z"/>
</svg>