<?xml version="1.0" encoding="UTF-8"?>
<svg id="uuid-fab0922a-8863-4477-ae0a-c1dbabf5f712" data-name="Capa 1" xmlns="http://www.w3.org/2000/svg" viewBox="0 0 190 190">
  <defs>
    <style>
      .uuid-74cebfcd-4abf-4071-8ba2-a8e0541a385a {
        fill: #067db9;
      }
    </style>
  </defs>
  <path class="uuid-74cebfcd-4abf-4071-8ba2-a8e0541a385a" d="M145.5,121.38c-2.41-8.28-8.71-14.95-16.84-17.84l-.47-.17v-33.55c-.01-2.27-.9-4.41-2.5-6.03l-27.14-27.14c-1.62-1.6-3.76-2.49-6.03-2.5h-40.56c-4.7,0-8.53,3.83-8.53,8.53v92.32c0,4.7,3.83,8.53,8.53,8.53h45.06l.21.31c4.78,7.18,12.79,11.66,21.41,11.98,8.62.31,16.94-3.55,22.24-10.35,5.31-6.81,7.03-15.82,4.62-24.1ZM97.42,42.27l22.65,22.65h-18.87c-2.08,0-3.78-1.7-3.78-3.78v-18.87ZM92.67,128.85c.03,3.08.6,6.1,1.68,8.98l.36.95h-42.75c-2.08,0-3.78-1.69-3.78-3.78V42.68c0-2.09,1.69-3.79,3.78-3.79h40.71v22.25c0,4.7,3.83,8.53,8.53,8.53h22.24v32.61l-.81-.13c-1-.16-2.01-.26-2.99-.3-7.18.02-13.95,2.83-19.04,7.92-5.09,5.1-7.91,11.87-7.92,19.07ZM135.39,144.58c-4.14,4.14-9.87,6.51-15.73,6.51s-11.52-2.31-15.73-6.51c-4.14-4.14-6.51-9.87-6.51-15.73s2.37-11.59,6.51-15.73c4.21-4.2,9.79-6.51,15.73-6.51s11.59,2.37,15.73,6.51c4.14,4.14,6.52,9.88,6.52,15.73s-2.38,11.59-6.52,15.73Z"/>
  <path class="uuid-74cebfcd-4abf-4071-8ba2-a8e0541a385a" d="M131.97,126.48h-9.94v-9.94c0-1.31-1.07-2.38-2.38-2.38s-2.37,1.07-2.37,2.38v9.94h-9.94c-1.31,0-2.37,1.06-2.37,2.37s1.06,2.37,2.37,2.37h9.94v9.94c0,1.31,1.06,2.38,2.37,2.38s2.38-1.07,2.38-2.38v-9.94h9.94c1.31,0,2.37-1.06,2.37-2.37s-1.06-2.37-2.37-2.37Z"/>
</svg>