<?xml version="1.0" encoding="UTF-8"?>
<svg id="uuid-55e934a2-4403-46f6-89a8-22842968fc01" data-name="Capa 1" xmlns="http://www.w3.org/2000/svg" viewBox="0 0 190 190">
  <defs>
    <style>
      .uuid-5bb5700b-401b-416f-96e2-b0408622ba66 {
        fill: #067db9;
      }
    </style>
  </defs>
  <path class="uuid-5bb5700b-401b-416f-96e2-b0408622ba66" d="M55.87,75.65c2.53,0,4.82-1.02,6.47-2.68,1.66-1.66,2.68-3.95,2.68-6.47s-1.02-4.82-2.68-6.47-3.95-2.68-6.47-2.68-4.82,1.02-6.47,2.68-2.68,3.95-2.68,6.47,1.02,4.82,2.68,6.47,3.95,2.68,6.47,2.68ZM52.55,63.17c.85-.85,2.03-1.38,3.32-1.38s2.47.53,3.32,1.38c.85.85,1.38,2.03,1.38,3.32s-.53,2.47-1.38,3.32c-.85.85-2.03,1.38-3.32,1.38s-2.47-.53-3.32-1.38c-.85-.85-1.38-2.03-1.38-3.32s.53-2.47,1.38-3.32Z"/>
  <path class="uuid-5bb5700b-401b-416f-96e2-b0408622ba66" d="M99.49,66.63h24.65c1.56,0,2.97-.64,3.99-1.67,1.03-1.02,1.67-2.44,1.67-3.99v-6.55c0-1.55-.63-2.96-1.67-3.99s-2.44-1.66-3.99-1.66h-24.65c-1.47,0-2.82.58-3.84,1.52l-.16.14c-1.02,1.02-1.66,2.44-1.66,3.99v6.55c0,1.56.64,2.97,1.66,3.99,1.02,1.02,2.44,1.66,3.99,1.66ZM98.28,54.42c0-.33.14-.63.36-.85l.07-.07c.21-.17.48-.28.78-.28h24.65c.34,0,.64.13.86.35.21.21.35.52.35.85v6.55c0,.34-.14.64-.36.85-.22.22-.52.36-.85.36h-24.65c-.32,0-.63-.14-.85-.36-.22-.22-.36-.52-.36-.85v-6.55Z"/>
  <path class="uuid-5bb5700b-401b-416f-96e2-b0408622ba66" d="M129.29,73.57h-34.95c-1.23,0-2.22,1-2.22,2.22s1,2.22,2.22,2.22h34.95c1.23,0,2.22-1,2.22-2.22s-1-2.22-2.22-2.22Z"/>
  <path class="uuid-5bb5700b-401b-416f-96e2-b0408622ba66" d="M128.11,131.3h-60.54c-1.23,0-2.22,1-2.22,2.22s1,2.22,2.22,2.22h60.54c1.23,0,2.22-1,2.22-2.22s-1-2.22-2.22-2.22Z"/>
  <path class="uuid-5bb5700b-401b-416f-96e2-b0408622ba66" d="M129.29,85.59h-34.95c-1.23,0-2.22,1-2.22,2.22s1,2.22,2.22,2.22h34.95c1.23,0,2.22-1,2.22-2.22s-1-2.22-2.22-2.22Z"/>
  <path class="uuid-5bb5700b-401b-416f-96e2-b0408622ba66" d="M161.68,70.78h-8.71v-16.81c0-1.23-1-2.22-2.22-2.22h-8.71v-11.66c0-1.23-1-2.22-2.22-2.22H55.88c-1.23,0-2.22,1-2.22,2.22v9.96h-19.89c-2.1,0-4.02.86-5.42,2.26-1.39,1.39-2.25,3.3-2.25,5.41v31.48c0,2.11.87,4.03,2.25,5.42,1.39,1.39,3.3,2.25,5.42,2.25h19.89v41.41c0,3.81,1.56,7.28,4.07,9.79h.01c2.52,2.52,5.99,4.09,9.8,4.09h83.21,0c3.62,0,6.91-1.47,9.3-3.85h.01c2.38-2.4,3.85-5.68,3.85-9.3v-65.98c0-1.23-1-2.22-2.22-2.22ZM33.77,92.4c-.89,0-1.69-.36-2.27-.95s-.95-1.39-.95-2.27v-31.48c0-.89.36-1.69.94-2.27.58-.58,1.39-.94,2.27-.94h44.22c.89,0,1.69.36,2.27.95.58.58.95,1.39.95,2.27v31.48c0,.89-.36,1.7-.95,2.28-.58.58-1.38.94-2.27.94h-4.9c-.48-3.94-2.29-7.47-4.95-10.14-3.14-3.14-7.47-5.08-12.26-5.08s-9.12,1.94-12.26,5.08c-2.67,2.67-4.47,6.2-4.95,10.14h.01s-4.9,0-4.9,0ZM43.15,92.39c.45-2.71,1.74-5.14,3.6-7,2.33-2.33,5.56-3.77,9.12-3.77s6.79,1.45,9.12,3.77c1.86,1.85,3.15,4.28,3.6,7h-25.44ZM67.53,147.69c-2.6,0-4.96-1.06-6.67-2.77-1.71-1.7-2.77-4.06-2.77-6.66v-41.41h0s19.88,0,19.88,0c2.1,0,4.02-.86,5.42-2.26,1.39-1.39,2.25-3.3,2.25-5.41v-31.48c0-2.11-.86-4.03-2.25-5.42-1.38-1.39-3.3-2.25-5.42-2.25h-19.88v-7.73h79.49v96.68c0,3.34,1.24,6.39,3.29,8.71h-73.35ZM159.45,138.98c0,2.41-.97,4.6-2.55,6.17-1.57,1.57-3.75,2.54-6.16,2.54s-4.58-.98-6.16-2.55c-1.57-1.57-2.55-3.75-2.55-6.16V56.18h6.49v77.51c0,1.23,1,2.22,2.22,2.22s2.22-1,2.22-2.22v-58.47h6.49v63.76Z"/>
  <path class="uuid-5bb5700b-401b-416f-96e2-b0408622ba66" d="M128.11,117.58h-60.54c-1.23,0-2.22,1-2.22,2.22s1,2.22,2.22,2.22h60.54c1.23,0,2.22-1,2.22-2.22s-1-2.22-2.22-2.22Z"/>
  <path class="uuid-5bb5700b-401b-416f-96e2-b0408622ba66" d="M128.11,103.85h-60.54c-1.23,0-2.22,1-2.22,2.22s1,2.22,2.22,2.22h60.54c1.23,0,2.22-1,2.22-2.22s-1-2.22-2.22-2.22Z"/>
</svg>