<?xml version="1.0" encoding="UTF-8"?>
<svg id="uuid-ed08801d-2492-472a-8e10-703a4b1b8979" data-name="Capa 1" xmlns="http://www.w3.org/2000/svg" viewBox="0 0 190 190">
  <defs>
    <style>
      .uuid-f3c501ea-2829-4ba0-b744-f55a7b3cc9b1 {
        fill: #067db9;
      }
    </style>
  </defs>
  <path class="uuid-f3c501ea-2829-4ba0-b744-f55a7b3cc9b1" d="M148.12,70.55h-8.67l4.71-4.71c4.49-4.49,4.51-11.79.02-16.28-4.05-4.06-10.4-4.43-14.91-1.15-4.49-3.28-10.86-2.91-14.91,1.15-4.49,4.49-4.49,11.79,0,16.28l4.71,4.71h-14.6v-33.39c0-3.01-2.47-5.46-5.5-5.46h-54.99c-3.03,0-5.48,2.45-5.5,5.46v41.03c0,3.03,2.47,5.5,5.5,5.5h32.74v20.98c-4.3-2.55-9.32-4.03-14.68-4.03-15.88,0-28.82,12.92-28.82,28.82,0,8.8,3.97,16.69,10.2,21.99.06.06.13.12.2.17,5,4.17,11.42,6.68,18.42,6.68,15.9,0,28.84-12.92,28.84-28.82,0-1.53-.12-3.03-.35-4.49h32.57l15.19,12.78c.34.3.79.46,1.23.46.28,0,.55-.06.79-.16.67-.32,1.11-.99,1.11-1.74v-11.31h6.71c4.77,0,8.66-3.88,8.66-8.66v-37.13c0-4.77-3.88-8.66-8.66-8.66ZM117.07,52.25c1.5-1.48,3.46-2.24,5.42-2.24s3.94.75,5.44,2.24c.75.75,1.96.75,2.71,0,3.01-3.01,7.87-3.01,10.86-.02,2.99,3.01,2.97,7.87-.02,10.86l-12.2,12.2-4.11-4.1c-.05-.06-.11-.11-.16-.16l-7.94-7.92c-2.99-2.99-2.99-7.87,0-10.86ZM43.98,79.85c-.91,0-1.66-.75-1.66-1.66v-41.03c0-.89.75-1.62,1.66-1.62h54.99c.91,0,1.66.73,1.66,1.62v33.39h-15.25c-4.77,0-8.66,3.88-8.66,8.66v.63h-32.74ZM47.18,149.57c2.86-5.45,8.56-8.92,14.86-8.92,4.49,0,8.72,1.74,11.89,4.91,1.22,1.25,2.21,2.6,2.96,4.02-4.16,3.08-9.29,4.9-14.85,4.9s-10.7-1.83-14.86-4.91ZM79.83,147.02c-.86-1.46-1.91-2.86-3.18-4.15-3.9-3.9-9.1-6.05-14.62-6.05-7.44,0-14.17,3.92-17.81,10.18-4.44-4.52-7.19-10.7-7.19-17.52,0-13.79,11.22-25,25-25s25,11.22,25,25c0,6.83-2.75,13.03-7.21,17.54ZM152.95,116.34c0,2.65-2.16,4.83-4.83,4.83h-8.62c-1.07,0-1.92.85-1.92,1.92v9.1l-12.58-10.58c-.34-.3-.77-.45-1.23-.45h-34.13c-1.64-5.44-4.85-10.2-9.1-13.76v-28.17c0-2.65,2.16-4.83,4.83-4.83h37.52l5,5c.38.38.87.55,1.36.55h0c.49,0,.99-.18,1.33-.53l5.02-5.02h12.5c2.65,0,4.83,2.16,4.83,4.83v37.13Z"/>
  <path class="uuid-f3c501ea-2829-4ba0-b744-f55a7b3cc9b1" d="M136.49,88.55h-39.46c-1.07,0-1.92.85-1.92,1.92s.85,1.92,1.92,1.92h39.46c1.07,0,1.92-.87,1.92-1.92s-.85-1.92-1.92-1.92Z"/>
  <path class="uuid-f3c501ea-2829-4ba0-b744-f55a7b3cc9b1" d="M136.49,101.75h-39.46c-1.07,0-1.92.85-1.92,1.92s.85,1.92,1.92,1.92h39.46c1.07,0,1.92-.85,1.92-1.92s-.85-1.92-1.92-1.92Z"/>
  <path class="uuid-f3c501ea-2829-4ba0-b744-f55a7b3cc9b1" d="M81.88,59.35c.59-.34.95-.97.95-1.66s-.36-1.33-.95-1.66l-18.87-10.9c-.59-.34-1.33-.34-1.92,0-.59.34-.95.97-.95,1.66v21.8c0,.69.36,1.33.95,1.66.3.18.61.26.95.26h0c.34,0,.67-.1.97-.26l18.87-10.9ZM63.95,50.12l13.11,7.58-13.11,7.58v-15.15Z"/>
  <path class="uuid-f3c501ea-2829-4ba0-b744-f55a7b3cc9b1" d="M62.04,114.25c-5,0-9.08,4.07-9.08,9.08s4.07,9.08,9.08,9.08,9.08-4.07,9.08-9.08-4.07-9.08-9.08-9.08ZM62.04,128.59c-2.89,0-5.24-2.35-5.24-5.24s2.35-5.24,5.24-5.24,5.24,2.33,5.24,5.24-2.35,5.24-5.24,5.24Z"/>
</svg>