<?xml version="1.0" encoding="UTF-8"?>
<svg id="uuid-e14ce4ef-8250-4aa4-9771-22a702613a85" data-name="Capa 1" xmlns="http://www.w3.org/2000/svg" viewBox="0 0 190 190">
  <defs>
    <style>
      .uuid-55756f3d-f7df-4e36-95cf-43c7a73dcc54 {
        fill: #067db9;
      }
    </style>
  </defs>
  <path class="uuid-55756f3d-f7df-4e36-95cf-43c7a73dcc54" d="M154.34,37.86H35.66c-6.06,0-10.99,4.93-10.99,10.99v92.31c0,6.06,4.93,10.99,10.99,10.99h118.68c6.06,0,10.99-4.93,10.99-10.99V48.85c0-6.06-4.93-10.99-10.99-10.99ZM132.36,147.75H57.64v-27.28c0-3.09,2.19-5.8,5.21-6.45l14.69-3.14c3.33,6.24,9.9,10.5,17.45,10.5s14.12-4.26,17.45-10.5l14.69,3.14c3.02.65,5.21,3.36,5.21,6.45v27.28ZM79.62,101.59v-13.19c0-8.48,6.9-15.38,15.38-15.38s15.38,6.9,15.38,15.38v13.19c0,8.48-6.9,15.38-15.38,15.38s-15.38-6.9-15.38-15.38ZM160.93,141.15c0,3.64-2.96,6.59-6.59,6.59h-17.58v-27.28c0-5.15-3.65-9.67-8.69-10.75l-13.99-2.99c.44-1.64.7-3.36.7-5.14v-13.19c0-10.91-8.87-19.78-19.78-19.78s-19.78,8.87-19.78,19.78v13.19c0,1.78.26,3.49.7,5.14l-13.99,2.99c-5.04,1.08-8.69,5.6-8.69,10.75v27.28h-17.58c-3.64,0-6.59-2.96-6.59-6.59V48.85c0-3.64,2.96-6.59,6.59-6.59h118.68c3.64,0,6.59,2.96,6.59,6.59v92.31Z"/>
  <path class="uuid-55756f3d-f7df-4e36-95cf-43c7a73dcc54" d="M35.66,56.54c.56,0,1.13-.22,1.55-.64l5.49-5.49c.86-.86.86-2.25,0-3.11s-2.25-.86-3.11,0l-5.49,5.49c-.86.86-.86,2.25,0,3.11.43.43.99.64,1.55.64Z"/>
  <path class="uuid-55756f3d-f7df-4e36-95cf-43c7a73dcc54" d="M35.66,78.52c.56,0,1.13-.22,1.55-.64l27.47-27.47c.86-.86.86-2.25,0-3.11s-2.25-.86-3.11,0l-27.47,27.47c-.86.86-.86,2.25,0,3.11.43.43.99.64,1.55.64Z"/>
  <path class="uuid-55756f3d-f7df-4e36-95cf-43c7a73dcc54" d="M83.56,47.29l-49.45,49.45c-.86.86-.86,2.25,0,3.11.43.43.99.64,1.55.64s1.13-.22,1.55-.64l49.45-49.45c.86-.86.86-2.25,0-3.11s-2.25-.86-3.11,0Z"/>
  <path class="uuid-55756f3d-f7df-4e36-95cf-43c7a73dcc54" d="M105.53,47.29l-12.09,12.09c-.86.86-.86,2.25,0,3.11.43.43.99.64,1.55.64s1.13-.22,1.55-.64l12.09-12.09c.86-.86.86-2.25,0-3.11-.86-.86-2.25-.86-3.11,0Z"/>
  <path class="uuid-55756f3d-f7df-4e36-95cf-43c7a73dcc54" d="M132.82,47.29c-.86-.86-2.25-.86-3.11,0l-17.58,17.58c-.86.86-.86,2.25,0,3.11.43.43.99.64,1.55.64s1.13-.22,1.55-.64l17.58-17.58c.86-.86.86-2.25,0-3.11Z"/>
  <path class="uuid-55756f3d-f7df-4e36-95cf-43c7a73dcc54" d="M154.64,50.4c.86-.86.86-2.25,0-3.11-.86-.86-2.25-.86-3.11,0l-31.71,31.71c-.86.86-.86,2.25,0,3.11.43.43.99.64,1.55.64s1.13-.22,1.55-.64l31.71-31.71Z"/>
  <path class="uuid-55756f3d-f7df-4e36-95cf-43c7a73dcc54" d="M152.79,68.17l-29.67,29.67c-.86.86-.86,2.25,0,3.11.43.43.99.64,1.55.64s1.13-.22,1.55-.64l29.67-29.67c.86-.86.86-2.25,0-3.11-.86-.86-2.25-.86-3.11,0Z"/>
  <path class="uuid-55756f3d-f7df-4e36-95cf-43c7a73dcc54" d="M152.79,90.15l-15.38,15.38c-.86.86-.86,2.25,0,3.11.43.43.99.64,1.55.64s1.13-.22,1.55-.64l15.38-15.38c.86-.86.86-2.25,0-3.11-.86-.86-2.25-.86-3.11,0Z"/>
  <path class="uuid-55756f3d-f7df-4e36-95cf-43c7a73dcc54" d="M152.79,112.13l-10.99,10.99c-.86.86-.86,2.25,0,3.11.43.43.99.64,1.55.64s1.13-.22,1.55-.64l10.99-10.99c.86-.86.86-2.25,0-3.11-.86-.86-2.25-.86-3.11,0Z"/>
  <path class="uuid-55756f3d-f7df-4e36-95cf-43c7a73dcc54" d="M152.79,134.11l-5.49,5.49c-.86.86-.86,2.25,0,3.11.43.43.99.64,1.55.64s1.13-.22,1.55-.64l5.49-5.49c.86-.86.86-2.25,0-3.11-.86-.86-2.25-.86-3.11,0Z"/>
  <path class="uuid-55756f3d-f7df-4e36-95cf-43c7a73dcc54" d="M65.97,86.85l-31.87,31.87c-.86.86-.86,2.25,0,3.11.43.43.99.64,1.55.64s1.13-.22,1.55-.64l31.87-31.87c.86-.86.86-2.25,0-3.11-.86-.86-2.25-.86-3.11,0Z"/>
  <path class="uuid-55756f3d-f7df-4e36-95cf-43c7a73dcc54" d="M44,133.01l-6.59,6.59c-.86.86-.86,2.25,0,3.11.43.43.99.64,1.55.64s1.13-.22,1.55-.64l6.59-6.59c.86-.86.86-2.25,0-3.11s-2.25-.86-3.11,0Z"/>
</svg>