<?xml version="1.0" encoding="UTF-8"?>
<svg id="uuid-55af3c4b-1378-4b4e-8dec-43f19ab6f871" data-name="Capa 1" xmlns="http://www.w3.org/2000/svg" viewBox="0 0 190 190">
  <defs>
    <style>
      .uuid-47a12346-2f1b-40c9-b5c2-6301d838625f {
        fill: #067db9;
      }
    </style>
  </defs>
  <path class="uuid-47a12346-2f1b-40c9-b5c2-6301d838625f" d="M172.04,98.7l-.02-38.91-.19-.36c-.26-.5-.57-.8-1.03-1.03-.33-.17-.76-.23-2.62-.41-1.23-.12-2.39-.23-2.6-.26l-.37-.05-.03-2.29c-.02-1.43-.07-2.38-.13-2.53-.16-.38-.65-.88-.99-1.03-.58-.25-5.52-.73-9.5-.93-3.54-.17-10.18-.11-13.89.14-15.08,1.01-30.14,4.79-43.11,10.8-.8.37-1.78.83-2.16,1l-.7.32-.55-.61c-.3-.34-1.15-1.22-1.9-1.95-6.91-6.81-16.4-11.6-28.13-14.19-7.59-1.67-16.56-2.19-22.67-1.29-1.3.19-2.86.54-3.38.75-.4.17-.77.55-.97,1-.17.36-.17.61-.1,5.89l.06,5.51-1.33-.06c-2.43-.11-11.48-.17-13.83-.08-2.15.07-2.34.09-2.71.28-.46.24-.76.54-1.03,1.03l-.19.36-.02,38.91c-.02,34.88,0,38.96.12,39.38.17.57.61,1.09,1.18,1.37.53.26.63.26,6.41-.13,11.31-.76,16.86-1.01,24.63-1.09,12.72-.13,22.15.7,30.97,2.71,4.36,1,9.21,2.57,12.49,4.04h0c1,.44,1.39.46,2.31.09,1.16-.46,4.04-1.42,6.08-2.02,4.9-1.44,9.72-2.48,15.04-3.25,7.31-1.04,13.83-1.41,23.7-1.31,6.64.06,9.46.17,21.96.82,7.53.4,7.4.39,7.92.14.56-.26,1.01-.79,1.18-1.37.12-.42.13-4.5.12-39.38ZM86.52,138.46c-3.39-1-8.59-2.09-12.72-2.67-6.65-.93-12.73-1.29-21.42-1.28-7.89,0-13.42.22-25.66,1.01-2.26.15-4.32.29-4.58.31l-.47.05V61.8h5.11c4.16,0,10.22.12,10.3.21,0,0,.16,12.63.33,28.04.18,15.42.36,29.08.4,30.36l.07,2.33.26.38c.4.57.87.77,2.09.89,6.12.59,14.17,1.98,20.48,3.52,10.64,2.61,18.94,5.92,25.1,10.02.84.56,1.56,1.06,1.59,1.11h0s.04.08.02.08c-.02,0-.43-.12-.92-.27ZM93.07,138.34c-.02.12-.16.04-.65-.42-.34-.31-1.03-.9-1.52-1.29-6.36-5.08-15.64-9.21-27.63-12.3-6.09-1.57-14.12-3.05-20.33-3.77-.75-.08-1.38-.2-1.4-.25-.07-.21-.85-71.21-.79-71.28.12-.12,2.39-.42,3.88-.53,1.66-.12,5.58-.12,7.44,0,7.74.48,15.19,2.1,21.79,4.74,7.13,2.84,13.33,7.04,17.62,11.93l.95,1.08.06,2.8c.03,1.54.18,17.72.33,35.97h0c.16,18.24.26,33.23.25,33.32ZM99.91,139.47h0c-1.18.47-2.35.93-2.61,1.04l-.47.19v-.65c0-.36-.14-16.69-.31-36.31-.17-19.61-.31-36-.31-36.42v-.76l1.5-.7c7.08-3.32,14.01-5.81,21.28-7.63,13.47-3.39,26.73-4.45,40.51-3.25.86.07,1.66.16,1.78.18l.22.05-.06,6.66c-.16,17.42-.59,51.85-.77,61.61-.05,2.62-.09,4.85-.09,4.95,0,.17-.07.17-5.29.18-5.49,0-7.75.1-12.2.49-14.25,1.25-28.81,4.75-43.15,10.37ZM168.33,135.87h-.42c-.23-.02-2.49-.13-5.02-.26-9.21-.5-13.36-.67-19.01-.81-4.25-.1-10.42-.05-13.69.11-.98.05-1.79.07-1.8.06-.04-.04,4.31-.81,6.39-1.13,3.69-.56,8.13-1.03,12.27-1.3,3.06-.19,9.87-.26,13.04-.13,2.9.12,2.99.11,3.58-.46.52-.51.55-.69.65-5.25.15-6.96.59-40.1.77-58.93l.06-6.32h.19c.11,0,.77.06,1.48.13.71.07,1.35.13,1.41.13.08,0,.11,7.48.11,37.09h0s0,37.08,0,37.08Z"/>
  <path class="uuid-47a12346-2f1b-40c9-b5c2-6301d838625f" d="M115.25,88.35c0-.9-.81-1.62-1.74-1.62-.45,0-1.17.11-1.65,1.4l-3.38,9.09-3.43-9.2c-.27-.72-.81-1.29-1.6-1.29-.92,0-1.74.72-1.74,1.62,0,.47.11.74.29,1.2l4.71,11.98c.56,1.44,1.17,1.53,1.76,1.53.72,0,1.24-.2,1.74-1.49l4.87-12.4c.11-.27.16-.52.16-.81Z"/>
  <path class="uuid-47a12346-2f1b-40c9-b5c2-6301d838625f" d="M124.18,88.42c-.4-1.15-1.31-1.83-2.39-1.83s-2.01.77-2.46,1.99l-4.46,12.09c-.16.45-.18.61-.18.81h0c0,.9.77,1.58,1.65,1.58.97,0,1.42-.52,1.65-1.2l.68-2.1h6.27l.65,2.05c.23.7.7,1.24,1.67,1.24.83,0,1.56-.63,1.56-1.49,0-.2-.07-.5-.18-.81l-4.44-12.34ZM119.63,96.65l2.14-6.54h.04l2.1,6.54h-4.28Z"/>
  <path class="uuid-47a12346-2f1b-40c9-b5c2-6301d838625f" d="M136.57,92.91c-1.56-.41-2.41-.86-2.41-1.6,0-.84.7-1.47,1.87-1.47s2.17.68,2.98.68c.88,0,1.51-.74,1.51-1.67h0c0-1.53-2.53-2.25-4.42-2.25-3.05,0-5.59,2.01-5.59,5.12,0,2.12,1.08,3.5,4.8,4.42,1.83.45,2.73.95,2.73,1.87,0,1.17-.9,1.94-2.3,1.94s-2.82-.88-3.79-.88c-.88,0-1.51.68-1.51,1.6,0,1.69,2.55,2.53,5.48,2.53,3.27,0,5.77-2.16,5.77-5.23,0-2.17-.86-3.97-5.12-5.05Z"/>
  <path class="uuid-47a12346-2f1b-40c9-b5c2-6301d838625f" d="M148.99,99.94c-1.4,0-2.82-.88-3.79-.88-.88,0-1.51.68-1.51,1.6,0,1.69,2.55,2.53,5.48,2.53,3.27,0,5.77-2.16,5.77-5.23,0-2.17-.86-3.97-5.12-5.05-1.56-.41-2.41-.86-2.41-1.6,0-.84.7-1.47,1.87-1.47s2.17.68,2.98.68c.88,0,1.51-.74,1.51-1.67h0c0-1.53-2.53-2.25-4.42-2.25-3.05,0-5.59,2.01-5.59,5.12,0,2.12,1.08,3.5,4.8,4.42,1.83.45,2.73.95,2.73,1.87,0,1.17-.9,1.94-2.3,1.94Z"/>
</svg>